<svg xmlns="http://www.w3.org/2000/svg"
     id="zact_white"
     width="582"
     height="144"
     viewBox="0 0 582 144">
    <defs>
        <clipPath id="clip-path">
            <path id="Rectangle_1563"
                  fill="#fff"
                  d="M0 0H582V144H0z"
                  opacity="0.5" />
        </clipPath>
        <style>
            .cls-3 {
                fill: #fff
            }

            .cls-4 {
                fill: #8aa6b4
            }
        </style>
    </defs>
    <g id="Group_1035">
        <g id="Mask_Group_103"
           clip-path="url(#clip-path)">
            <g id="Group_1034">
                <path id="Path_5330"
                      d="M228.83 92.37c6.56-9.66 13.28-19.15 20-28.2s13.33-17.6 19.68-25.37 11.79-14.12 16.23-19l.13-.14V.13H183.15v22.71h67c-3.44 4-7.13 8.53-11 13.52-4.12 5.33-8.39 11-12.7 16.86s-8.71 12-13.11 18.39-8.6 12.69-12.64 18.89-7.95 12.39-11.48 18.19-6.74 11.34-9.46 16.36l-.06 16.78h107.39v-22.72h-75.17c4.9-8.42 10.58-17.41 16.91-26.74z"
                      class="cls-3" />
                <path id="Path_5331"
                      d="M381.29 43.74a33.42 33.42 0 0 0-13.5-8.66C362.21 33 355.25 32 347.11 32a107 107 0 0 0-19.17 1.64 98.093 98.093 0 0 0-13.68 3.26l-.39.14 3.2 20.9.57-.2a68.321 68.321 0 0 1 11.49-2.82 91.932 91.932 0 0 1 15.55-1.21A28.51 28.51 0 0 1 355 55.3a15.74 15.74 0 0 1 10 11 31.709 31.709 0 0 1 1 8v3.43a78.756 78.756 0 0 0-9-1.59 77 77 0 0 0-8.59-.51 80.511 80.511 0 0 0-16.85 1.73 42.49 42.49 0 0 0-14.28 5.76 29.85 29.85 0 0 0-9.81 10.42c-2.4 4.25-3.61 9.53-3.61 15.68 0 6.41 1.07 11.88 3.19 16.26a28.31 28.31 0 0 0 8.89 10.74 37.32 37.32 0 0 0 13.68 6 78.65 78.65 0 0 0 17.57 1.84 176.6 176.6 0 0 0 26-1.73c7.56-1.14 13.35-2.13 17.2-3l.39-.08V74.53a65.911 65.911 0 0 0-2.16-17.29 32.53 32.53 0 0 0-7.33-13.5zM365.91 96v26.43a94.52 94.52 0 0 1-16.77 1.13c-6.1 0-11-1.11-14.56-3.28s-5.24-6-5.24-11.66a12.33 12.33 0 0 1 1.94-7.13 13.12 13.12 0 0 1 5.19-4.4 25.27 25.27 0 0 1 7.37-2.19 56.389 56.389 0 0 1 8.15-.6 54.592 54.592 0 0 1 8.45.6 53.878 53.878 0 0 1 5.47 1.1z"
                      class="cls-3" />
                <path id="Path_5332"
                      d="M491.33 117.93a58.849 58.849 0 0 1-10.47 3 62.92 62.92 0 0 1-12.29 1.2c-11 0-18.95-3-23.56-9s-7-14.37-7-24.77c0-10.8 2.49-19.26 7.4-25.17s12.13-8.85 21.55-8.85a51.669 51.669 0 0 1 11.36 1.2 56 56 0 0 1 9.56 3l.53.23 5.53-21.08-.4-.17A75.21 75.21 0 0 0 464.92 32a54.88 54.88 0 0 0-22.13 4.31 48.74 48.74 0 0 0-16.72 11.9 53.09 53.09 0 0 0-10.55 17.93 65.83 65.83 0 0 0-3.69 22.2 73.771 73.771 0 0 0 3.28 22.38 48.5 48.5 0 0 0 9.95 17.84 45.391 45.391 0 0 0 16.82 11.71c6.74 2.78 14.76 4.2 23.85 4.2a87.789 87.789 0 0 0 17-1.64 51.61 51.61 0 0 0 12.41-3.7l.33-.16-3.62-21.28z"
                      class="cls-3" />
                <path id="Path_5333"
                      d="M577.73 117.91l-.55.22a78.837 78.837 0 0 1-8.17 2.62 44.75 44.75 0 0 1-11.75 1.4c-6.3 0-10.81-1.77-13.41-5.28s-4-9.59-4-18V56.14h37.77v-21.5h-37.71V.15h-25.55V99.1a88 88 0 0 0 1.81 18.9 35.711 35.711 0 0 0 6.38 14.2 28.569 28.569 0 0 0 12.29 9c5.11 2 11.56 3.08 19.17 3.08a61.69 61.69 0 0 0 16.38-1.94 93 93 0 0 0 11.23-3.78l.37-.16z"
                      class="cls-3" />
                <path id="Path_5334"
                      d="M25.79 58.58a46.84 46.84 0 0 1 32.79-32.79V0A72 72 0 0 0 0 58.58z"
                      class="cls-4" />
                <path id="Path_5335"
                      d="M116.06 83.26a46.9 46.9 0 0 1-32.8 32.8v25.78a72 72 0 0 0 58.58-58.58z"
                      class="cls-4" />
                <path id="Path_5336"
                      d="M58.58 116.06a46.87 46.87 0 0 1-32.79-32.8H0a72 72 0 0 0 58.58 58.58z"
                      class="cls-4" />
                <path id="Path_5337"
                      fill="#00b04c"
                      d="M141.78 58.58h.06l-.06-.36-.16-58.17H83.26v25.74a46.87 46.87 0 0 1 32.8 32.79h25.51l.21.17z" />
                <circle id="Ellipse_859"
                        cx="17.16"
                        cy="17.16"
                        r="17.16"
                        fill="#b0d57d"
                        transform="translate(53.93 53.789)" />
            </g>
        </g>
    </g>
</svg>