<svg width="250" height="250" viewBox="0 0 250 250" fill="none" xmlns="http://www.w3.org/2000/svg">
<path d="M45.377 103.07C53.0717 75.0011 75.0011 53.0717 103.07 45.377L103.07 0C50.4091 9.17066 9.17068 50.409 0 103.07L45.377 103.07Z" fill="#8AA6B4"/>
<path d="M204.205 146.495C196.494 174.565 174.564 196.495 146.494 204.206V249.566C199.155 240.395 240.394 199.157 249.565 146.495H204.205Z" fill="#8AA6B4"/>
<path d="M103.07 204.206C75.0022 196.499 53.0758 174.566 45.377 146.495H0C9.17069 199.157 50.4091 240.395 103.07 249.566L103.07 204.206Z" fill="#8AA6B4"/>
<path d="M249.459 103.072H249.564L249.459 102.439L249.177 0.0897217H146.934H146.494V45.3788C174.565 53.0776 196.498 75.0039 204.205 103.072L249.089 103.072L249.459 103.371L249.459 103.072Z" fill="#00B04C"/>
<circle cx="125.081" cy="124.833" r="30.1927" fill="#B0D57D"/>
</svg>
